#!OML:ASF F:\VICON\USERDATA\INSTALL\rory3\rory3.ASF
:FULLY-SPECIFIED
:DEGREES
106
root 13.8529 18.1956 -9.3235 -1.89739 3.7948 -1.82316
lowerback 10.9666 0.0465959 1.13276
upperback 1.07066 0.280811 1.48244
thorax -5.03486 0.13012 0.867175
lowerneck -22.5845 -7.14907 -12.4391
upperneck 24.9872 -8.7244 10.1681
head 13.1937 -3.71905 4.45222
rclavicle -5.8393e-015 -1.23246e-014
rhumerus -33.8804 -12.8824 -81.4002
rradius 26.5845
rwrist 9.27439
rhand -15.2099 11.2003
rfingers 7.12502
rthumb 10.9623 -18.4935
lclavicle -5.8393e-015 -1.23246e-014
lhumerus -32.0514 3.07833 84.5281
lradius 30.2757
lwrist -12.9299
lhand -15.378 26.874
lfingers 7.12502
lthumb 10.8001 56.5763
rfemur -6.67808 -2.07083 27.4292
rtibia 17.6167
rfoot -6.7454 3.70431
rtoes 8.71787
lfemur -8.55505 -2.44379 -18.3876
ltibia 58.3393
lfoot 7.67759 -9.68929
ltoes -5.25204
107
root 13.8564 18.2044 -9.19673 -2.02558 3.69575 -1.91841
lowerback 11.1259 0.117201 1.29286
upperback 1.09156 0.39655 1.46892
thorax -5.10147 0.183492 0.745193
lowerneck -22.8086 -7.1433 -13.0279
upperneck 25.4443 -8.78346 11.0366
head 13.5224 -3.68495 4.9101
rclavicle 1.50828e-014 2.22639e-014
rhumerus -33.7047 -12.7829 -81.445
rradius 26.7337
rwrist 9.13127
rhand -15.1571 10.8141
rfingers 7.12502
rthumb 11.0132 -18.877
lclavicle 1.50828e-014 2.22639e-014
lhumerus -32.1876 3.748 84.2246
lradius 30.1036
lwrist -12.8875
lhand -15.2531 27.188
lfingers 7.12502
lthumb 10.9206 56.884
rfemur -6.11461 -2.07184 27.569
rtibia 17.6008
rfoot -7.14036 3.65811
rtoes 8.28414
lfemur -9.64227 -2.20843 -18.1779
ltibia 59.0487
lfoot 6.75952 -8.59209
ltoes -4.74999
108
root 13.8637 18.216 -9.06874 -2.03595 3.47554 -2.05551
lowerback 11.1374 0.241812 1.49813
upperback 1.10858 0.58753 1.47748
thorax -5.0888 0.273385 0.609157
lowerneck -22.8793 -7.17358 -13.3579
upperneck 25.6435 -8.84678 11.4569
head 13.6751 -3.68969 5.13607
rclavicle 5.11871e-015 -1.86858e-014
rhumerus -33.5162 -12.8803 -81.3698
rradius 26.9731
rwrist 9.09026
rhand -14.6934 10.385
rfingers 7.12502
rthumb 11.4604 -19.2818
lclavicle 5.11871e-015 -1.86858e-014
lhumerus -32.4104 3.95218 84.1074
lradius 30.2138
lwrist -12.3592
lhand -16.2033 26.9586
lfingers 7.12502
lthumb 10.004 56.7009
rfemur -5.73084 -2.01982 27.7297
rtibia 17.7848
rfoot -7.52349 3.75289
rtoes 7.11322
lfemur -10.8502 -1.97501 -17.9656
ltibia 59.6005
lfoot 5.91101 -7.24625
ltoes -3.11226
109
root 13.8729 18.2041 -8.94867 -2.02995 3.26947 -2.19423
lowerback 11.0904 0.333013 1.70139
upperback 1.18988 0.729875 1.4695
thorax -4.97473 0.340043 0.464856
lowerneck -23.0085 -7.22304 -13.3073
upperneck 25.6429 -8.91119 11.4281
head 13.7072 -3.71191 5.10105
rclavicle 6.60959e-015 1.51076e-014
rhumerus -33.0706 -12.8584 -81.4572
rradius 27.0848
rwrist 8.9988
rhand -14.4361 10.3819
rfingers 7.12502
rthumb 11.7085 -19.2709
lclavicle 6.60959e-015 1.51076e-014
lhumerus -32.5642 4.06099 84.0289
lradius 30.3876
lwrist -11.217
lhand -18.3329 25.6535
lfingers 7.12502
lthumb 7.94903 55.484
rfemur -5.38602 -1.96346 27.8881
rtibia 17.9887
rfoot -7.93525 3.86532
rtoes 5.1981
lfemur -11.904 -1.80225 -17.7361
ltibia 59.9564
lfoot 4.78122 -6.30491
ltoes -2.39778
110
root 13.8804 18.1807 -8.83202 -2.07136 3.09818 -2.32988
lowerback 11.1077 0.408174 1.86097
upperback 1.26761 0.849445 1.50293
thorax -4.90069 0.396815 0.391838
lowerneck -23.0383 -7.23699 -13.2402
upperneck 25.564 -8.89815 11.2844
head 13.6652 -3.71664 5.02859
rclavicle -9.7653e-015 -9.54166e-015
rhumerus -32.6679 -12.5158 -81.6069
rradius 27.3175
rwrist 8.57954
rhand -14.5919 10.5119
rfingers 7.12502
rthumb 11.5584 -19.1493
lclavicle -9.7653e-015 -9.54166e-015
lhumerus -32.6935 4.0553 84.0781
lradius 30.3563
lwrist -9.53422
lhand -18.5447 26.2383
lfingers 7.12502
lthumb 7.7446 56.0765
rfemur -5.05964 -1.77542 28.0657
rtibia 18.2573
rfoot -8.53615 3.69394
rtoes 5.4145
lfemur -12.8474 -1.63446 -17.4662
ltibia 60.1335
lfoot 3.63465 -5.79651
ltoes -2.04871
111
root 13.891 18.1716 -8.71418 -2.07381 2.72184 -2.39524
lowerback 11.1718 0.525577 1.99051
upperback 1.28833 1.02234 1.50398
thorax -4.91136 0.479417 0.293384
lowerneck -22.9958 -7.2407 -13.271
upperneck 25.5167 -8.87941 11.2442
head 13.6328 -3.71795 5.01931
rclavicle 4.62174e-015 -8.54774e-015
rhumerus -32.4304 -12.2066 -81.7483
rradius 27.6743
rwrist 8.17917
rhand -14.9307 10.4099
rfingers 7.12502
rthumb 11.2316 -19.2694
lclavicle 4.62174e-015 -8.54774e-015
lhumerus -32.9179 4.04314 84.0689
lradius 30.4053
lwrist -8.26473
lhand -17.8237 27.1261
lfingers 7.12502
lthumb 8.4405 56.9374
rfemur -4.83194 -1.57986 28.1468
rtibia 18.6334
rfoot -9.14869 3.72042
rtoes 5.66936
lfemur -13.9069 -1.27486 -17.3376
ltibia 60.1705
lfoot 2.56106 -5.45458
ltoes -2.87002
112
root 13.9049 18.1616 -8.59347 -2.01867 2.44694 -2.43464
lowerback 11.1733 0.647668 2.21432
upperback 1.26713 1.20654 1.39926
thorax -4.92587 0.564578 0.0300709
lowerneck -22.8676 -7.27785 -13.2262
upperneck 25.4587 -8.97773 11.2901
head 13.598 -3.75411 5.0096
rclavicle -1.2424e-014 -2.10712e-014
rhumerus -32.2379 -12.4016 -81.7962
rradius 27.9018
rwrist 8.22598
rhand -14.7957 9.89954
rfingers 7.12502
rthumb 11.3618 -19.7727
lclavicle -1.2424e-014 -2.10712e-014
lhumerus -33.1842 3.91204 83.947
lradius 30.62
lwrist -7.45772
lhand -17.7442 26.9879
lfingers 7.12502
lthumb 8.51721 56.7961
rfemur -4.64436 -1.5949 28.1527
rtibia 19.0264
rfoot -9.74837 3.85738
rtoes 5.72813
lfemur -14.9988 -1.0433 -17.2675
ltibia 60.0766
lfoot 1.49166 -5.00702
ltoes -2.70302
113
root 13.9149 18.1406 -8.4747 -1.99289 2.42323 -2.6222
lowerback 11.1881 0.677995 2.51918
upperback 1.25039 1.28436 1.38609
thorax -4.94359 0.596506 -0.16723
lowerneck -22.7746 -7.27518 -13.3012
upperneck 25.4511 -8.98779 11.3867
head 13.5878 -3.75646 5.06114
rclavicle -6.95746e-016 8.74653e-015
rhumerus -31.9835 -12.3587 -81.8346
rradius 28.0958
rwrist 8.08231
rhand -14.637 9.56321
rfingers 7.12502
rthumb 11.5148 -20.1005
lclavicle -6.95746e-016 8.74653e-015
lhumerus -33.5111 3.9123 83.8684
lradius 30.8492
lwrist -6.68523
lhand -17.5547 27.5589
lfingers 7.12502
lthumb 8.70011 57.3596
rfemur -4.31732 -1.31714 28.3683
rtibia 19.3475
rfoot -10.3776 3.37142
rtoes 6.31016
lfemur -16.0536 -1.0549 -16.9959
ltibia 59.8905
lfoot 0.382365 -4.71074
ltoes -2.92194
114
root 13.923 18.1113 -8.35946 -2.06873 2.25829 -2.80256
lowerback 11.3468 0.771673 2.73456
upperback 1.26942 1.44241 1.41867
thorax -5.00443 0.669668 -0.280661
lowerneck -22.7666 -7.34153 -13.4246
upperneck 25.4873 -9.07949 11.5018
head 13.6305 -3.79408 5.11304
rclavicle 1.26477e-014 7.95139e-015
rhumerus -31.7312 -12.0543 -81.9192
rradius 28.3672
rwrist 7.62454
rhand -14.6333 9.49256
rfingers 7.12502
rthumb 11.5184 -20.171
lclavicle 1.26477e-014 7.95139e-015
lhumerus -33.6963 4.19191 83.7265
lradius 30.8275
lwrist -6.72631
lhand -17.6085 27.7125
lfingers 7.12502
lthumb 8.64813 57.5154
rfemur -3.89702 -0.839568 28.6056
rtibia 19.7314
rfoot -11.0294 2.91835
rtoes 6.77295
lfemur -16.9555 -0.980903 -16.719
ltibia 59.5881
lfoot -0.543324 -4.39031
ltoes -3.46115
115
root 13.9346 18.0911 -8.23761 -2.13056 2.02864 -2.80504
lowerback 11.4821 0.900409 2.83564
upperback 1.27886 1.62659 1.34261
thorax -5.06035 0.756825 -0.447653
lowerneck -22.7779 -7.4067 -13.3983
upperneck 25.5074 -9.21693 11.5981
head 13.6682 -3.83832 5.12137
rclavicle 5.19325e-015 -3.18055e-015
rhumerus -31.5637 -11.8477 -82.0693
rradius 28.717
rwrist 7.21927
rhand -14.6339 9.51142
rfingers 7.12502
rthumb 11.5178 -20.1521
lclavicle 5.19325e-015 -3.18055e-015
lhumerus -33.8319 4.23646 83.5556
lradius 30.8032
lwrist -6.79124
lhand -17.794 27.3921
lfingers 7.12502
lthumb 8.46917 57.2023
rfemur -3.5825 -0.607615 28.6346
rtibia 20.1391
rfoot -11.6442 2.72573
rtoes 6.41711
lfemur -17.741 -0.83844 -16.6553
ltibia 59.111
lfoot -1.38329 -4.03518
ltoes -4.08636
116
root 13.9465 18.072 -8.11545 -2.09652 2.00191 -2.8946
lowerback 11.524 0.944921 2.99994
upperback 1.22141 1.70884 1.32535
thorax -5.13655 0.792202 -0.572202
lowerneck -22.6589 -7.39616 -13.2926
upperneck 25.4603 -9.22328 11.5062
head 13.6126 -3.846 5.06301
rclavicle 2.50966e-014 2.0276e-014
rhumerus -31.5051 -11.4789 -82.1845
rradius 29.2226
rwrist 6.79564
rhand -14.63 9.52129
rfingers 7.12502
rthumb 11.5216 -20.1421
lclavicle 2.50966e-014 2.0276e-014
lhumerus -34.0844 4.30244 83.4822
lradius 30.8434
lwrist -6.79372
lhand -17.8861 27.3504
lfingers 7.12502
lthumb 8.38027 57.1642
rfemur -3.39692 -0.581266 28.7596
rtibia 20.5215
rfoot -12.2408 2.48715
rtoes 6.27988
lfemur -18.6232 -0.83215 -16.4963
ltibia 58.4926
lfoot -2.21551 -3.59854
ltoes -5.04333
117
root 13.9575 18.0539 -7.99205 -2.07358 2.05807 -3.02918
lowerback 11.4104 0.945282 3.17105
upperback 1.26872 1.7271 1.37218
thorax -5.01955 0.80037 -0.619248
lowerneck -22.5653 -7.39633 -13.2857
upperneck 25.3109 -9.20315 11.4444
head 13.5233 -3.84712 5.03504
rclavicle 7.70291e-016 1.03368e-014
rhumerus -31.234 -10.9662 -82.2843
rradius 29.6482
rwrist 6.27494
rhand -14.7109 9.31148
rfingers 7.12502
rthumb 11.4435 -20.3562
lclavicle 7.70291e-016 1.03368e-014
lhumerus -34.2362 4.50804 83.4733
lradius 30.915
lwrist -6.91214
lhand -17.9748 27.49
lfingers 7.12502
lthumb 8.29466 57.3071
rfemur -3.12551 -0.521159 28.9306
rtibia 20.8442
rfoot -12.7061 2.24318
rtoes 7.13842
lfemur -19.4509 -0.900931 -16.2968
ltibia 57.7013
lfoot -2.93796 -3.07568
ltoes -6.46996
118
root 13.9675 18.0373 -7.86769 -2.10053 1.95413 -3.06339
lowerback 11.3288 1.01457 3.22227
upperback 1.36288 1.81863 1.37194
thorax -4.87065 0.847621 -0.659272
lowerneck -22.4144 -7.41317 -13.3983
upperneck 25.088 -9.23868 11.6184
head 13.4233 -3.85601 5.11154
rclavicle -4.06266e-014 -2.62396e-014
rhumerus -30.9061 -10.4629 -82.4373
rradius 29.9198
rwrist 5.76831
rhand -14.9521 9.34777
rfingers 7.12502
rthumb 11.2109 -20.3327
lclavicle -4.06266e-014 -2.62396e-014
lhumerus -34.2943 4.50423 83.4906
lradius 30.9301
lwrist -6.86189
lhand -18.1204 26.985
lfingers 7.12502
lthumb 8.15417 56.8077
rfemur -2.76273 -0.480875 28.9804
rtibia 21.0816
rfoot -13.2266 2.10467
rtoes 7.18303
lfemur -20.1293 -0.847699 -16.1923
ltibia 56.733
lfoot -3.50899 -2.56245
ltoes -7.39243
